HIERARCHY
ROOT hip
{
  OFFSET 0 0 0
  CHANNELS 6 Xposition Yposition Zposition Zrotation Yrotation Xrotation
  JOINT abdomen
  {
    OFFSET 0 20.6881 -0.73152
    CHANNELS 3 Zrotation Xrotation Yrotation
    JOINT chest
    {
      OFFSET 0 11.7043 -0.48768
      CHANNELS 3 Zrotation Xrotation Yrotation
      JOINT neck
      {
        OFFSET 0 22.1894 -2.19456
        CHANNELS 3 Zrotation Xrotation Yrotation
        JOINT head
        {
          OFFSET -0.24384 7.07133 1.2192
          CHANNELS 3 Zrotation Xrotation Yrotation
          JOINT leftEye
          {
            OFFSET 4.14528 8.04674 8.04672
            CHANNELS 3 Zrotation Xrotation Yrotation
            End Site
            {
              OFFSET 1 0 0
            }
          }
          JOINT rightEye
          {
            OFFSET -3.6576 8.04674 8.04672
            CHANNELS 3 Zrotation Xrotation Yrotation
            End Site
            {
              OFFSET 1 0 0
            }
          }
        }
      }
      JOINT rCollar
      {
        OFFSET -2.68224 19.2634 -4.8768
        CHANNELS 3 Zrotation Xrotation Yrotation
        JOINT rShldr
        {
          OFFSET -8.77824 -1.95073 1.46304
          CHANNELS 3 Zrotation Xrotation Yrotation
          JOINT rForeArm
          {
            OFFSET -28.1742 -1.7115 0.48768
            CHANNELS 3 Zrotation Xrotation Yrotation
            JOINT rHand
            {
              OFFSET -22.5879 0.773209 7.07136
              CHANNELS 3 Zrotation Xrotation Yrotation
              JOINT rThumb1
              {
                OFFSET -1.2192 -0.487915 3.41376
                CHANNELS 3 Zrotation Xrotation Yrotation
                JOINT rThumb2
                {
                  OFFSET -3.37035 -0.52449 3.41376
                  CHANNELS 3 Zrotation Xrotation Yrotation
                  End Site
                  {
                    OFFSET -1.78271 -1.18214 1.43049
                  }
                }
              }
              JOINT rIndex1
              {
                OFFSET -7.75947 0.938293 5.60832
                CHANNELS 3 Zrotation Xrotation Yrotation
                JOINT rIndex2
                {
                  OFFSET -2.54057 -0.884171 1.56538
                  CHANNELS 3 Zrotation Xrotation Yrotation
                  End Site
                  {
                    OFFSET -1.62519 -0.234802 1.16502
                  }
                }
              }
              JOINT rMid1
              {
                OFFSET -8.24714 1.18213 3.41376
                CHANNELS 3 Zrotation Xrotation Yrotation
                JOINT rMid2
                {
                  OFFSET -3.10165 -0.590103 1.0647
                  CHANNELS 3 Zrotation Xrotation Yrotation
                  End Site
                  {
                    OFFSET -2.48547 -0.328903 0.83742
                  }
                }
              }
              JOINT rRing1
              {
                OFFSET -8.82822 0.546677 1.51678
                CHANNELS 3 Zrotation Xrotation Yrotation
                JOINT rRing2
                {
                  OFFSET -2.60934 -0.819778 -0.0198488
                  CHANNELS 3 Zrotation Xrotation Yrotation
                  End Site
                  {
                    OFFSET -2.33842 -0.294052 0.168128
                  }
                }
              }
              JOINT rPinky1
              {
                OFFSET -8.27202 -0.0477905 -0.4584
                CHANNELS 3 Zrotation Xrotation Yrotation
                JOINT rPinky2
                {
                  OFFSET -1.82734 -0.647385 -0.700984
                  CHANNELS 3 Zrotation Xrotation Yrotation
                  End Site
                  {
                    OFFSET -1.69225 -0.51767 -0.607171
                  }
                }
              }
            }
          }
        }
      }
      JOINT lCollar
      {
        OFFSET 2.68224 19.2634 -4.8768
        CHANNELS 3 Zrotation Xrotation Yrotation
        JOINT lShldr
        {
          OFFSET 8.77824 -1.95073 1.46304
          CHANNELS 3 Zrotation Xrotation Yrotation
          JOINT lForeArm
          {
            OFFSET 28.1742 -1.7115 0.48768
            CHANNELS 3 Zrotation Xrotation Yrotation
            JOINT lHand
            {
              OFFSET 22.5879 0.773209 7.07136
              CHANNELS 3 Zrotation Xrotation Yrotation
              JOINT lThumb1
              {
                OFFSET 1.2192 -0.487915 3.41376
                CHANNELS 3 Zrotation Xrotation Yrotation
                JOINT lThumb2
                {
                  OFFSET 3.37035 -0.52449 3.41376
                  CHANNELS 3 Zrotation Xrotation Yrotation
                  End Site
                  {
                    OFFSET 1.78271 -1.18214 1.43049
                  }
                }
              }
              JOINT lIndex1
              {
                OFFSET 7.75947 0.938293 5.60832
                CHANNELS 3 Zrotation Xrotation Yrotation
                JOINT lIndex2
                {
                  OFFSET 2.54057 -0.884171 1.56538
                  CHANNELS 3 Zrotation Xrotation Yrotation
                  End Site
                  {
                    OFFSET 1.62519 -0.234802 1.16502
                  }
                }
              }
              JOINT lMid1
              {
                OFFSET 8.24714 1.18213 3.41376
                CHANNELS 3 Zrotation Xrotation Yrotation
                JOINT lMid2
                {
                  OFFSET 3.10165 -0.590103 1.0647
                  CHANNELS 3 Zrotation Xrotation Yrotation
                  End Site
                  {
                    OFFSET 2.48547 -0.328903 0.83742
                  }
                }
              }
              JOINT lRing1
              {
                OFFSET 8.82822 0.546677 1.51678
                CHANNELS 3 Zrotation Xrotation Yrotation
                JOINT lRing2
                {
                  OFFSET 2.60934 -0.819778 -0.0198488
                  CHANNELS 3 Zrotation Xrotation Yrotation
                  End Site
                  {
                    OFFSET 2.33842 -0.294052 0.168128
                  }
                }
              }
              JOINT lPinky1
              {
                OFFSET 8.27202 -0.0477905 -0.4584
                CHANNELS 3 Zrotation Xrotation Yrotation
                JOINT lPinky2
                {
                  OFFSET 1.82734 -0.647385 -0.700984
                  CHANNELS 3 Zrotation Xrotation Yrotation
                  End Site
                  {
                    OFFSET 1.69225 -0.51767 -0.607171
                  }
                }
              }
            }
          }
        }
      }
    }
  }
  JOINT rButtock
  {
    OFFSET -8.77824 4.35084 1.2192
    CHANNELS 3 Zrotation Xrotation Yrotation
    JOINT rThigh
    {
      OFFSET 0 -1.70687 -2.19456
      CHANNELS 3 Zrotation Xrotation Yrotation
      JOINT rShin
      {
        OFFSET 0 -36.8199 0.73152
        CHANNELS 3 Zrotation Xrotation Yrotation
        JOINT rFoot
        {
          OFFSET 0.73152 -45.1104 -5.12064
          CHANNELS 3 Zrotation Xrotation Yrotation
          End Site
          {
            OFFSET -1.1221 -3.69964 12.103
          }
        }
      }
    }
  }
  JOINT lButtock
  {
    OFFSET 8.77824 4.35084 1.2192
    CHANNELS 3 Zrotation Xrotation Yrotation
    JOINT lThigh
    {
      OFFSET 0 -1.70687 -2.19456
      CHANNELS 3 Zrotation Xrotation Yrotation
      JOINT lShin
      {
        OFFSET 0 -36.8199 0.73152
        CHANNELS 3 Zrotation Xrotation Yrotation
        JOINT lFoot
        {
          OFFSET -0.73152 -45.1104 -5.12064
          CHANNELS 3 Zrotation Xrotation Yrotation
          End Site
          {
            OFFSET 1.1221 -3.69964 12.103
          }
        }
      }
    }
  }
}
MOTION
Frames:	4
Frame Time:	0.03333
0.014823395758867264 -0.18616801500320435 0.03984063118696213 -16.351246386766434 -3.952814005315304 0.09791538119316101 -0.7993224263191223 11.624862849712372 2.7575366757810116 1.9564297422766685 -8.504116013646126 0.6695932382717729 -4.077901169657707 12.328497469425201 -3.6879901215434074 8.70801217854023 -20.65302684903145 -5.134784057736397 -0.3532504476606846 0.7346372678875923 -0.531506622210145 -0.32352461479604244 0.7039645314216614 0.2350402157753706 -0.7961071282625198 -0.5006534233689308 -0.3584600519388914 38.58176350593567 23.76792311668396 6.555812358856201 -22.023042887449265 -23.849682211875916 52.55282700061798 -3.133590593934059 -7.9664357006549835 -3.571900762617588 0.7043029926717281 -0.3311960678547621 1.9564515352249146 1.1322325095534325 0.48340095207095146 -0.569688118994236 0.27770443819463253 0.12298867106437683 1.2568003311753273 7.027226686477661 3.6816658079624176 0.13182357419282198 -0.19813788123428822 -0.38875254336744547 0.9643483534455299 2.989351451396942 1.5257829800248146 -0.323977991938591 -2.12643351405859 1.2963605672121048 -0.5286799930036068 9.019685536623001 0.2927348669618368 -0.7131732255220413 -0.5242685973644257 0.21692214533686638 -0.36348994821310043 2.32128007337451 -1.1435204185545444 -2.30212289839983 -1.2835343275219202 0.7180997729301453 0.32339008525013924 -45.85813522338867 23.913100361824036 -22.85006046295166 18.786979168653488 -18.87871339917183 -49.24663960933685 2.8506825864315033 -9.941529929637909 1.7111083678901196 -0.47623325139284134 -0.4568077716976404 0.003526434302330017 1.104530654847622 -0.8776033669710159 -1.1644421517848969 -1.118457019329071 0.796777680516243 -0.1857912540435791 -7.496837228536606 4.999824017286301 -0.7228414993733168 -0.3311411663889885 1.1275444272905588 -0.9227778017520905 -2.947305142879486 1.0353940352797508 -1.4773878827691078 -1.2371115759015083 0.97715824842453 0.49717241898179054 -9.867996498942375 1.2542220577597618 -0.7535724900662899 -0.9470625221729279 0.19781786017119884 0.2766282856464386 -3.5392143577337265 -0.2620607055723667 0.031511387787759304 0.040766685269773006 -0.040811297949403524 -1.350431889295578 -27.62287974357605 -26.855730414390564 -20.990801453590393 -16.60130873322487 50.64498782157898 20.07846549153328 -5.093001611530781 -10.208879113197327 -7.527346685528755 -1.3880398124456406 -1.794552393257618 1.0897170659154654 31.223509311676025 -28.548810482025146 25.532532334327698 19.438357651233673 50.81326961517334 -14.59738478064537 5.640764012932777 -9.1218763589859 10.172526463866234
0.009827302768826485 -0.6192653775215149 0.12491094321012497 -19.3285171687603 -2.570446729660034 4.226179718971252 -2.6203609630465508 14.241798967123032 2.9812592267990112 3.536246158182621 -9.61945965886116 0.01590801402926445 -5.814167484641075 15.728259086608887 -4.1754018142819405 8.873326107859612 -25.04766136407852 -5.171357989311218 -1.0053227841854095 -0.8329636976122856 -0.3370215743780136 -0.21965422667562962 -0.4407452791929245 0.07172872312366962 0.0454895943403244 0.3190038353204727 -1.0117075312882662 49.62899923324585 30.157902538776398 9.553164169192314 -24.074960947036743 -29.711840450763702 65.12821912765503 -5.741100087761879 -13.151624500751495 -5.2969225868582726 0.4723400669172406 0.26567825116217136 -0.036734193563461304 0.7763793133199215 0.22405124735087156 -0.013724025338888168 -0.038517024368047714 -0.6249268725514412 0.22053692489862442 7.5362469255924225 5.477215312421322 -0.37263317964971066 0.14754077419638634 -0.1631984207779169 0.1756974309682846 3.5813163220882416 1.0361990332603455 0.1883738860487938 -0.44044286012649536 0.1709633320569992 0.02165699377655983 10.577257722616196 0.28265370056033134 -0.033377744257450104 0.5646881461143494 -0.32984398305416107 0.11585818603634834 2.890700474381447 -0.7179499045014381 -1.1424634605646133 -1.1736496724188328 -0.3008047118782997 0.12224012520164251 -58.56336236000061 30.355983674526215 -25.013476610183716 21.955476701259613 -25.759543776512146 -59.83897805213928 4.607670307159424 -9.636228829622269 2.562557179480791 0.24616174399852753 -0.6861448148265481 -0.01284740399569273 0.3614373877644539 0.5243118479847908 -0.24792931973934174 -0.1645759865641594 0.15630103647708893 -0.7097158581018448 -7.741275653243065 5.697387456893921 -0.7221717014908791 0.3281424567103386 1.036417130380869 0.33851858228445053 -3.2085268199443817 1.8474354967474937 -0.9546278603374958 0.2234957367181778 0.5155562795698643 0.26259781792759895 -10.196013897657394 0.4388982430100441 0.02021346241235733 0.014968067407608032 0.48814536072313786 -0.025062058120965958 -2.7898406982421875 -0.9432402066886425 -0.18914845772087574 -0.17748457845300436 -0.22110502934083343 -0.8166109398007393 -33.916672468185425 -33.18927615880966 -28.502408266067505 -22.38995298743248 61.82461738586426 21.69801414012909 -4.8580551892519 -10.965355932712555 -9.699628874659538 -0.4551997035741806 -0.46183113008737564 0.5143450945615768 40.614818930625916 -32.47839689254761 35.07290840148926 22.658864557743073 62.19938635826111 -21.848323792219162 5.514806807041168 -10.41491836309433 13.400015830993652
-0.016227297484874725 -1.1633938550949097 0.6998229548335075 -12.161241620779037 3.9523395895957947 -1.6991492360830307 -4.157095067203045 14.049911051988602 1.366540566086769 5.067305378615856 -9.739306792616844 -1.2202891800552607 -7.360538765788078 16.08096554875374 -6.625780463218689 10.588392242789268 -23.052873015403748 -11.552012711763382 -0.16998818144202232 0.6514458730816841 -1.1249464564025402 -0.009899614378809929 -0.06585828959941864 -0.9793687239289284 -0.5333646386861801 1.0326679050922394 -0.9819886554032564 46.78772449493408 25.839436054229736 17.378922700881958 -22.888209521770477 -25.59967339038849 59.27600920200348 -3.9764298498630524 -4.716762788593769 -2.9876750707626343 1.151833925396204 0.5388153064996004 -0.40779903531074524 1.02932620793581 -0.26635538320988417 -0.3312719240784645 0.0447043776512146 -0.09569618850946426 1.0143101960420609 7.7886763215065 5.20293865352869 0.025759851559996605 0.053800418972969055 0.8069672249257565 0.3546014428138733 3.6796320229768753 1.0749328136444092 -0.28821542859077454 -0.46303242444992065 0.1892130821943283 -0.4426632262766361 10.86616650223732 0.4374808631837368 0.38152847439050674 -1.2913944572210312 0.886374693363905 -0.033884765580296516 2.530601341277361 -1.1410928517580032 -0.8993818983435631 -1.2530413828790188 0.15105245634913445 0.2457941137254238 -61.06567025184631 41.19789630174637 -20.223263204097748 23.375328183174133 -28.875648379325867 -63.613001704216 3.840578645467758 -18.329451978206635 5.493327006697655 0.3234301507472992 0.2758014528080821 -0.9743741992861032 0.47198865562677383 1.3081636279821396 -1.1390510201454163 -0.836416706442833 0.07821489125490189 -0.18715817481279373 -7.589410990476608 5.1456402987241745 -1.565232239663601 0.7370633259415627 -0.06223563104867935 0.4749353975057602 -2.5321032106876373 1.7861134931445122 -0.23222364485263824 -1.6399294137954712 0.4108056239783764 0.4195986595004797 -10.787194222211838 2.0069644041359425 -0.018491651862859726 0.622834749519825 0.10354441590607166 0.3556976281106472 -3.5850687325000763 -1.4466422237455845 -0.3453757334500551 -0.03200357314199209 -0.27670546201989055 -1.7733673006296158 -35.22067129611969 -37.65013575553894 -30.756300687789917 -15.38903072476387 58.4699410200119 9.960058629512787 -4.283267855644226 -9.884048849344254 -6.357321515679359 0.191989503800869 0.1786830648779869 0.6001617014408112 27.64207363128662 -25.176439583301544 22.018043249845505 9.30949553847313 57.0293265581131 -9.213719218969345 6.480693742632866 -10.989920943975449 16.706400364637375
0.030908122658729553 -2.0503647327423096 1.1288188621401787 8.715863674879074 12.533416897058487 -11.308901309967041 -3.95531315356493 13.664941638708115 0.739118903875351 5.2355871722102165 -7.975415736436844 -1.750107854604721 -6.534615531563759 16.727884858846664 -9.222981557250023 12.349417358636856 -24.0700900554657 -17.14741051197052 -0.26485640555620193 0.38137760013341904 -0.4261590912938118 -0.42927623726427555 -0.20935948938131332 -0.0540609285235405 0.18342789262533188 1.8267140910029411 -2.3394542187452316 42.41321861743927 24.590567350387573 21.533677875995636 -20.834954380989075 -21.695264875888824 54.53779578208923 2.0882291346788406 2.2348743863403797 -0.9660540707409382 1.2146882247179747 0.995958773419261 0.7658685743808746 2.785920649766922 -0.4306691000238061 0.4317030496895313 0.20723266527056694 1.2141370307654142 1.1113682761788368 7.9733021557331085 5.188698135316372 0.22514722310006618 -0.48737271688878536 1.8688500858843327 -0.5231169238686562 3.994005024433136 0.775497704744339 -0.10932080447673798 1.2473143637180328 -1.2027766183018684 -0.7562166452407837 10.322551801800728 0.4430127516388893 0.18067292869091034 -2.31427900493145 0.9805540926754475 0.5767249781638384 2.862579859793186 -1.9649192690849304 0.7395634800195694 -1.3200649246573448 -1.3547264412045479 -0.7270866818726063 -61.700313091278076 52.80596315860748 -16.15989625453949 24.66232717037201 -32.82620429992676 -68.39668393135071 2.8089145570993423 -27.62889862060547 8.929784595966339 1.2127956748008728 1.2636004015803337 -0.9333303663879633 0.4657243564724922 -0.023811981081962585 -1.6663062572479248 -1.2928767129778862 0.24564575403928757 -0.72409987449646 -7.118821442127228 5.540944263339043 -1.2972197122871876 -0.09681466966867447 0.04380717873573303 0.4304378852248192 -2.7929527312517166 2.5392603501677513 -0.41636332869529724 0.19329406321048737 1.0904426872730255 1.3987779524177313 -11.758308112621307 2.203800156712532 0.18810398876667023 0.3514977917075157 0.5667830351740122 1.7511334642767906 -4.164934828877449 -0.3768555633723736 1.1364160012453794 1.1209687404334545 0.11900971876457334 -1.864469200372696 -32.92158365249634 -41.8245729804039 -29.188308119773865 -10.395090132951736 59.82157051563263 10.046553835272789 -3.757200837135315 -6.496999561786652 -2.9448509216308594 -0.19026149064302444 0.1219576969742775 1.0736480355262756 16.895020008087158 -19.082880467176437 13.0490742623806 2.3198841512203217 54.213141202926636 -3.3100350201129913 6.939891278743744 -12.870755642652512 18.80313813686371
